# xmcd
# 
# Track frame offsets:
#     150
#     17651
#     39394
#     53152
#     71638
#     89464
#     105905
#     121549
#     139265
#     155151
#     173214
#     193026
#     207774
#     225317
# 
# Disc length: 3289
# 
# Revision: 0
# Processed by: cddbd v1.5.2PL0 Copyright (c) Steve Scherf et al.
# Submitted via: fre:ac v1.0.27
# 
DISCID=b20cd70e
DTITLE=Ricardo Arjona - Viaje
DYEAR=0
DGENRE=Pop
TTITLE0=Lo poco que tengo
TTITLE1=Cavernicolas
TTITLE2=Nube de luz
TTITLE3=Apnea
TTITLE4=Viaje
TTITLE5=Soldado raso
TTITLE6=Vives para morir
TTITLE7=Tu fantasma
TTITLE8=La luna en bicicleta
TTITLE9=Piel pecado
TTITLE10=Invertebrado
TTITLE11=Tu boca
TTITLE12=Pedigri
TTITLE13=Cisnes
EXTD=
EXTT0=
EXTT1=
EXTT2=
EXTT3=
EXTT4=
EXTT5=
EXTT6=
EXTT7=
EXTT8=
EXTT9=
EXTT10=
EXTT11=
EXTT12=
EXTT13=
PLAYORDER=
